<?xml version="1.0" standalone="no"?>
        <!DOCTYPE svg PUBLIC "-//W3C//DTD SVG 1.1//EN" 
        "http://www.w3.org/Graphics/SVG/1.1/DTD/svg11.dtd"><svg id="changeColor" fill="#DC7633" xmlns="http://www.w3.org/2000/svg" xmlns:xlink="http://www.w3.org/1999/xlink" width="200" zoomAndPan="magnify" viewBox="0 0 375 374.9999" height="200" version="1.0"><defs><path id="pathAttribute" d="M 168 350 L 217 350 L 217 362.203125 L 168 362.203125 Z M 168 350 " fill="#ffffff"></path><path id="pathAttribute" d="M 37.5 266 L 348 266 L 348 278 L 37.5 278 Z M 37.5 266 " fill="#ffffff"></path><path id="pathAttribute" d="M 37.5 97 L 348 97 L 348 109 L 37.5 109 Z M 37.5 97 " fill="#ffffff"></path><path id="pathAttribute" d="M 168 12.703125 L 217 12.703125 L 217 25 L 168 25 Z M 168 12.703125 " fill="#ffffff"></path></defs><g><path id="pathAttribute" d="M 215.433594 352 C 215.746094 351.648438 216.074219 351.316406 216.386719 350.964844 L 168.898438 350.964844 C 169.210938 351.316406 169.539062 351.648438 169.851562 352 C 175.636719 358.5 183.945312 362.242188 192.652344 362.242188 C 201.359375 362.242188 209.648438 358.519531 215.433594 352 " fill-opacity="1" fill-rule="nonzero" fill="#ffffff"></path></g><path id="pathAttribute" d="M 137.539062 322.78125 C 142.4375 326.316406 147.183594 330.070312 151.753906 334.054688 L 233.527344 334.054688 C 238.097656 330.070312 242.847656 326.320312 247.75 322.78125 Z M 137.539062 322.78125 " fill-opacity="1" fill-rule="nonzero" fill="#ffffff"></path><path id="pathAttribute" d="M 81.273438 294.597656 C 90.96875 297.632812 100.378906 301.398438 109.441406 305.871094 L 275.882812 305.871094 C 284.945312 301.402344 294.359375 297.628906 304.050781 294.59375 Z M 81.273438 294.597656 " fill-opacity="1" fill-rule="nonzero" fill="#ffffff"></path><g><path id="pathAttribute" d="M 347.449219 266.410156 L 37.863281 266.410156 C 38.535156 269.347656 39.617188 272.203125 41.152344 274.867188 C 41.722656 275.847656 42.34375 276.78125 43.007812 277.683594 L 342.296875 277.683594 C 342.964844 276.78125 343.582031 275.847656 344.148438 274.867188 C 345.6875 272.203125 346.777344 269.347656 347.449219 266.410156 " fill-opacity="1" fill-rule="nonzero" fill="#ffffff"></path></g><path id="pathAttribute" d="M 42.144531 238.226562 C 41.128906 242.003906 40.027344 245.773438 38.789062 249.5 L 346.511719 249.503906 C 345.269531 245.773438 344.167969 242.011719 343.15625 238.230469 Z M 42.144531 238.226562 " fill-opacity="1" fill-rule="nonzero" fill="#ffffff"></path><path id="pathAttribute" d="M 47.539062 210.039062 C 47.101562 213.808594 46.542969 217.566406 45.890625 221.3125 L 339.414062 221.3125 C 338.753906 217.566406 338.195312 213.808594 337.761719 210.039062 Z M 47.539062 210.039062 " fill-opacity="1" fill-rule="nonzero" fill="#ffffff"></path><path id="pathAttribute" d="M 336.546875 181.855469 L 48.742188 181.855469 C 48.851562 185.609375 48.851562 189.371094 48.742188 193.128906 L 336.546875 193.128906 C 336.441406 189.371094 336.441406 185.609375 336.546875 181.855469 " fill-opacity="1" fill-rule="nonzero" fill="#ffffff"></path><path id="pathAttribute" d="M 337.761719 164.941406 C 338.199219 161.171875 338.753906 157.410156 339.410156 153.664062 L 45.898438 153.667969 C 46.550781 157.414062 47.109375 161.171875 47.542969 164.941406 Z M 337.761719 164.941406 " fill-opacity="1" fill-rule="nonzero" fill="#ffffff"></path><path id="pathAttribute" d="M 343.152344 136.757812 C 344.164062 132.976562 345.265625 129.214844 346.507812 125.484375 L 38.792969 125.484375 C 40.039062 129.210938 41.136719 132.976562 42.148438 136.757812 Z M 343.152344 136.757812 " fill-opacity="1" fill-rule="nonzero" fill="#ffffff"></path><g clip-path="url(#id3)"><path id="pathAttribute" d="M 37.851562 108.570312 L 347.445312 108.570312 C 346.773438 105.632812 345.683594 102.777344 344.140625 100.117188 C 343.574219 99.136719 342.957031 98.199219 342.292969 97.296875 L 43 97.296875 C 42.332031 98.199219 41.710938 99.136719 41.144531 100.117188 C 39.609375 102.777344 38.519531 105.632812 37.851562 108.570312 " fill-opacity="1" fill-rule="nonzero" fill="#ffffff"></path></g><path id="pathAttribute" d="M 304.105469 80.386719 C 294.402344 77.355469 284.972656 73.582031 275.902344 69.113281 L 109.414062 69.113281 C 100.339844 73.582031 90.914062 77.351562 81.210938 80.386719 Z M 304.105469 80.386719 " fill-opacity="1" fill-rule="nonzero" fill="#ffffff"></path><path id="pathAttribute" d="M 247.769531 52.199219 C 242.867188 48.667969 238.117188 44.914062 233.542969 40.925781 L 151.746094 40.925781 C 147.179688 44.914062 142.425781 48.667969 137.527344 52.203125 Z M 247.769531 52.199219 " fill-opacity="1" fill-rule="nonzero" fill="#ffffff"></path><g clip-path="url(#id4)"><path id="pathAttribute" d="M 169.839844 22.960938 C 169.523438 23.320312 169.191406 23.660156 168.871094 24.015625 L 216.394531 24.015625 C 216.074219 23.660156 215.742188 23.320312 215.421875 22.960938 C 209.636719 16.460938 201.351562 12.742188 192.644531 12.742188 C 183.933594 12.742188 175.625 16.460938 169.839844 22.960938 " fill-opacity="1" fill-rule="nonzero" fill="#ffffff"></path></g><g id="inner-icon" transform="translate(85, 75)"> <svg xmlns="http://www.w3.org/2000/svg" width="213" height="213" fill="currentColor" class="bi bi-house" viewBox="0 0 16 16" id="IconChangeColor"> <path fill-rule="evenodd" d="M2 13.5V7h1v6.5a.5.5 0 0 0 .5.5h9a.5.5 0 0 0 .5-.5V7h1v6.5a1.5 1.5 0 0 1-1.5 1.5h-9A1.5 1.5 0 0 1 2 13.5zm11-11V6l-2-2V2.5a.5.5 0 0 1 .5-.5h1a.5.5 0 0 1 .5.5z" id="mainIconPathAttribute" stroke-width="0" stroke="#1e00ff" fill="blue"></path> <path fill-rule="evenodd" d="M7.293 1.5a1 1 0 0 1 1.414 0l6.647 6.646a.5.5 0 0 1-.708.708L8 2.207 1.354 8.854a.5.5 0 1 1-.708-.708L7.293 1.5z" id="mainIconPathAttribute" stroke="#1e00ff" fill="blue"></path> </svg> </g></svg>